<svg width="359" height="100" viewBox="0 0 359 100" fill="none" xmlns="http://www.w3.org/2000/svg">
<rect width="359" height="100" fill="#F5F5F5"/>
<g clip-path="url(#clip0_669_21673)">
<path d="M61.702 57.457L78.28 60.64L79.568 58.417L64.832 52.05L61.702 57.457ZM69.382 44.19L82.277 53.744L83.565 51.52L72.513 38.782L69.383 44.19H69.382ZM65.53 50.848L80.266 57.217L81.579 54.945L68.684 45.392L65.53 50.848ZM76.727 31.5L73.247 37.52L84.3 50.26L85.938 47.436L76.727 31.5ZM57.5 64.727H75.92L77.557 61.903L60.98 58.72L57.5 64.727ZM86.731 57.289L91.041 64.727H95.941L86.731 48.805L77.521 64.727H82.421L86.731 57.289Z" fill="#FCAF17"/>
<path d="M125.929 64.7034H132.949L134.562 61.8554H125.93L125.929 64.7034ZM125.929 56.7954V59.6434H135.839L137.488 56.7954H125.929ZM274.713 60.1724V51.7604H271.606V64.7034H274.207L281.683 56.2314V64.7034H284.789V51.7604H282.045L274.713 60.1724ZM144.194 51.7604L136.754 64.7034H140.414L145.314 56.1584L150.25 64.7034H154.103L146.663 51.7604H144.194ZM121.838 61.8544L114.398 48.9004H111.858L104.417 61.8544H102.551V68.5004H105.512V64.7024H120.742V68.5004H123.704V61.8544H121.838ZM108.125 61.8544L113.025 53.2984L117.961 61.8544H108.125ZM223.376 51.7604H208.917V54.6084H221.714L223.376 51.7604ZM140.377 51.7604H125.93V54.6084H138.728L140.377 51.7604ZM298.754 51.7604L291.422 60.1724V51.7604H288.316V64.7034H290.928L298.393 56.2314V64.7034H301.499V51.7604H298.754ZM264.972 56.7954H258.17V51.7604H255.063V64.7034H258.17V59.6434H264.972V64.7034H268.078V51.7604H264.972V56.7954ZM227.181 51.7604L219.741 64.7034H223.413L228.313 56.1584L233.249 64.7034H237.09L229.649 51.7604H227.181ZM196.48 56.4004H191.761V51.7494H188.655V64.7034H196.456C198.563 64.7034 200.754 63.5384 200.754 60.4854C200.742 56.4724 197.925 56.4004 196.48 56.4004ZM196.3 61.9644H191.749V59.0804H196.3C196.829 59.0804 197.636 59.2244 197.636 60.5224C197.636 61.7234 196.974 61.9644 196.3 61.9644ZM205.402 51.7604H202.332V64.7154H205.402V51.7604ZM161.929 51.4474C156.739 51.4474 154.284 54.6204 154.284 58.1654C154.284 61.8664 156.679 64.8824 161.929 64.8824C164.216 64.8824 169.513 63.8254 169.513 58.1654C169.513 54.4644 167.142 51.4474 161.929 51.4474ZM161.893 62.0344C158.895 62.0344 157.631 60.3164 157.631 58.2014C157.631 55.8814 159.075 54.3314 161.893 54.3314C165.071 54.3314 166.154 55.8814 166.154 58.2014C166.154 60.9774 164.072 62.0344 161.893 62.0344ZM208.917 64.7034H215.936L217.561 61.8554H208.917V64.7034ZM208.917 56.7954V59.6434H218.825L220.486 56.7954H208.917ZM241.46 60.1004V51.7604H238.354V64.7034H240.967L248.443 56.3034V64.7034H251.549V51.7604H248.937L241.46 60.1004ZM183.069 57.0724C183.887 56.7234 184.586 56.1594 184.586 54.7524C184.586 52.0724 182.334 51.7604 180.745 51.7604H172.354V64.7154H180.89C184.802 64.7154 185.609 62.5644 185.609 60.5934C185.621 58.3704 184.357 57.4564 183.069 57.0724ZM175.424 54.5004H180.396C181.142 54.5004 181.455 54.8854 181.455 55.6304C181.455 56.3994 180.962 56.7954 180.396 56.7954H175.424V54.5004ZM180.89 61.9634H175.424V59.1874H180.89C181.768 59.1874 182.407 59.4034 182.407 60.5574C182.407 61.4704 182.021 61.9634 180.89 61.9634Z" fill="#1A1A1A"/>
</g>
<defs>
<clipPath id="clip0_669_21673">
<rect width="244" height="37" fill="white" transform="translate(57.5 31.5)"/>
</clipPath>
</defs>
</svg>
