<svg width="120" height="120" viewBox="0 0 120 120" fill="none" xmlns="http://www.w3.org/2000/svg">
<rect width="120" height="120" rx="60" fill="white"/>
<path d="M59.7772 27.1116L12.2895 53.5318L12 53.8944L12.0579 54.3408L12.4342 54.6058L12.5934 54.6337H31.0616L31.6695 54.4664L38.7038 50.5605L39.6155 50.4489L39.9195 50.5605L46.9247 54.4664L47.5326 54.6337H66.0153L66.4495 54.4525L66.6232 54.0479L66.4495 53.6294L66.3193 53.5318L50.7602 44.8691L50.4707 44.5205L50.5287 44.0741L50.7602 43.8649L59.7772 38.8291L60.7035 38.7175L60.993 38.8291L89.0862 54.4664L89.694 54.6337H108.177L108.611 54.4525L108.785 54.0479L108.611 53.6294L108.481 53.5318L60.993 27.1116L60.0667 27L59.7772 27.1116Z" fill="#912D29"/>
<path d="M89.7086 65.6875L89.1007 65.841L82.0954 69.7469L81.1692 69.8724L80.8796 69.7469L73.86 65.841L73.2521 65.6875H54.7693L54.3352 65.8549L54.1614 66.2735L54.3352 66.6919L54.4654 66.7756L70.0245 75.4381L70.314 75.8008L70.2561 76.2472L70.0245 76.4564L61.0075 81.4783L60.0956 81.6038L59.7916 81.4783L31.6985 65.841L31.0906 65.6875H12.6079L12.1882 65.8549L12 66.2735L12.1882 66.6919L12.3039 66.7756L59.7916 93.2097L60.6746 93.3214H60.7325L61.0075 93.2097L108.51 66.7756L108.785 66.4268L108.727 65.9805L108.351 65.7155L108.206 65.6875H89.7086Z" fill="#912D29"/>
</svg>
