<svg width="497" height="82" viewBox="0 0 497 82" fill="none" xmlns="http://www.w3.org/2000/svg">
<g clip-path="url(#clip0_838_2868)">
<path d="M55.8214 0.927259L0.338208 33.1829L0 33.6256L0.0676418 34.1706L0.507313 34.4942L0.693328 34.5282H22.271L22.9813 34.3239L31.1999 29.5553L32.2651 29.4191L32.6202 29.5553L40.8049 34.3239L41.5152 34.5282H63.1098L63.6171 34.3069L63.8201 33.813L63.6171 33.3021L63.4649 33.1829L45.2862 22.6069L44.9479 22.1813L45.0157 21.6363L45.2862 21.3808L55.8214 15.2328L56.9036 15.0966L57.2419 15.2328L90.0651 34.3239L90.7752 34.5282H112.37L112.877 34.3069L113.08 33.813L112.877 33.3021L112.725 33.1829L57.2419 0.927259L56.1596 0.791016L55.8214 0.927259Z" fill="#912D29"/>
<path d="M90.7923 48.0234L90.082 48.2108L81.8973 52.9794L80.8151 53.1326L80.4768 52.9794L72.2752 48.2108L71.565 48.0234H49.9703L49.4631 48.2278L49.2601 48.7388L49.4631 49.2496L49.6152 49.3518L67.794 59.9277L68.1322 60.3705L68.0646 60.9155L67.794 61.1709L57.2588 67.3019L56.1934 67.4552L55.8382 67.3019L23.0152 48.2108L22.3049 48.0234H0.710239L0.219835 48.2278L0 48.7388L0.219835 49.2496L0.35512 49.3518L55.8382 81.6245L56.8699 81.7608H56.9375L57.2588 81.6245L112.759 49.3518L113.08 48.926L113.013 48.3812L112.573 48.0576L112.404 48.0234H90.7923Z" fill="#912D29"/>
<path d="M148.487 46.8047H156.926V39.244H148.487V31.9196H158.165V24.4062H140.24V57.4841H148.487V46.8047Z" fill="#1A1A1A"/>
<path d="M170.646 31.9196H180.37V24.4062H162.447V57.4841H180.753V49.5927H170.646V44.2058H179.513V36.6451H170.646V31.9196Z" fill="#1A1A1A"/>
<path d="M210.278 57.4369V57.0116L204.604 45.0091C207.561 42.8353 208.562 39.8584 208.609 36.078C208.609 29.0844 204.128 24.4062 197.359 24.4062H185.584V57.4369H193.831V47.0882H196.978L201.268 57.4369H210.278ZM193.688 40.0473V31.8724H197.31C199.313 31.8724 200.648 33.4791 200.648 35.889C200.648 38.3935 199.313 40.0473 197.31 40.0473H193.688Z" fill="#1A1A1A"/>
<path d="M238.676 57.4369V57.0116L233.003 45.0091C235.959 42.8353 236.959 39.8584 237.007 36.078C237.007 29.0844 232.527 24.4062 225.757 24.4062H213.983V57.4369H222.23V47.0882H225.376L229.665 57.4369H238.676ZM222.087 40.0473V31.8724H225.709C227.712 31.8724 229.046 33.4791 229.046 35.889C229.046 38.3935 227.712 40.0473 225.709 40.0473H222.087Z" fill="#1A1A1A"/>
<path d="M253.636 57.9095C260.595 57.9095 265.267 53.2786 265.267 46.3794V24.4062H257.068V46.1905C257.068 48.6476 255.732 50.3015 253.682 50.3015C251.584 50.3015 250.203 48.6476 250.203 46.1905V24.4062H241.956V46.3794C241.956 53.2786 246.628 57.9095 253.636 57.9095Z" fill="#1A1A1A"/>
<path d="M298.951 24.2178H296.043L284.888 38.5357L273.732 24.2178H270.824V57.4847H279.071V42.5051L284.41 49.5933H285.317L290.704 42.5051V57.4847H298.951V24.2178Z" fill="#1A1A1A"/>
<path d="M312.481 47.0879H320.918V39.5272H312.481V32.2028H322.157V24.6895H304.233V57.7673H312.481V47.0879Z" fill="#CDCDCD"/>
<path d="M354.185 41.2293C354.185 31.0224 348.368 24.2178 339.644 24.2178C330.872 24.2178 325.009 31.0224 325.009 41.2293C325.009 51.4362 330.872 58.2408 339.644 58.2408C348.368 58.2408 354.185 51.4362 354.185 41.2293ZM333.208 41.2293C333.208 35.9368 335.784 32.3455 339.644 32.3455C343.41 32.3455 345.889 35.9368 345.889 41.2293C345.889 46.5218 343.41 50.1603 339.644 50.1603C335.784 50.1603 333.208 46.5218 333.208 41.2293Z" fill="#CDCDCD"/>
<path d="M383.256 57.7201V57.2948L377.583 45.2923C380.538 43.1187 381.539 40.1416 381.588 36.3612C381.588 29.3676 377.106 24.6895 370.337 24.6895H358.562V57.7201H366.809V47.3714H369.955L374.246 57.7201H383.256ZM366.666 40.3307V32.1556H370.289C372.291 32.1556 373.627 33.7623 373.627 36.1722C373.627 38.6767 372.291 40.3307 370.289 40.3307H366.666Z" fill="#CDCDCD"/>
<path d="M415.085 24.501H412.179L401.023 38.8191L389.868 24.501H386.96V57.7679H395.207V42.7883L400.546 49.8765H401.453L406.838 42.7883V57.7679H415.085V24.501Z" fill="#CDCDCD"/>
<path d="M447.404 57.7682V57.2484L434.723 24.2178H430.623L417.799 57.2484V57.7682H426.428L427.905 53.6571H437.392L438.871 57.7682H447.404ZM430.241 46.9471C431.623 42.3635 431.958 40.8039 432.625 37.5435C433.149 40.4732 433.483 42.1744 435.056 46.9471H430.241Z" fill="#CDCDCD"/>
<path d="M445.613 24.6895V32.2502H452.192V57.7673H460.201V32.2502H466.731V24.6895H445.613Z" fill="#CDCDCD"/>
<path d="M475.647 20.1289V22.5453H478.257V30.7008H481.433V22.5453H484.024V20.1289H475.647Z" fill="#CDCDCD"/>
<path d="M496.61 20.0693H495.456L491.033 24.6454L486.608 20.0693H485.455V30.7015H488.726V25.914L490.843 28.1793H491.203L493.339 25.914V30.7015H496.61V20.0693Z" fill="#CDCDCD"/>
</g>
<defs>
<clipPath id="clip0_838_2868">
<rect width="497" height="82" fill="white"/>
</clipPath>
</defs>
</svg>
