<svg width="266" height="42" viewBox="0 0 266 42" fill="none" xmlns="http://www.w3.org/2000/svg">
<g clip-path="url(#clip0_788_21786)">
<path d="M29.8762 0.475301L0.181013 16.9965L0 17.2232L0.0362027 17.5024L0.27152 17.6681L0.371077 17.6855H11.9197L12.2998 17.5809L16.6985 15.1385L17.2686 15.0687L17.4587 15.1385L21.8392 17.5809L22.2194 17.6855H33.7771L34.0486 17.5722L34.1572 17.3192L34.0486 17.0576L33.9672 16.9965L24.2377 11.5795L24.0566 11.3615L24.0929 11.0824L24.2377 10.9515L29.8762 7.80254L30.4555 7.73275L30.6365 7.80254L48.2039 17.5809L48.5839 17.6855H60.1416L60.4132 17.5722L60.5218 17.3192L60.4132 17.0576L60.3317 16.9965L30.6365 0.475301L30.0573 0.405518L29.8762 0.475301Z" fill="#912D29"/>
<path d="M48.593 24.5974L48.2129 24.6934L43.8324 27.1358L43.2531 27.2143L43.0721 27.1358L38.6825 24.6934L38.3024 24.5974H26.7447L26.4732 24.7021L26.3646 24.9638L26.4732 25.2255L26.5546 25.2778L36.2841 30.6947L36.4651 30.9215L36.4289 31.2007L36.2841 31.3315L30.6455 34.4718L30.0753 34.5502L29.8853 34.4718L12.318 24.6934L11.9378 24.5974H0.380128L0.117658 24.7021L0 24.9638L0.117658 25.2255L0.190064 25.2778L29.8853 41.8077L30.4374 41.8775H30.4736L30.6455 41.8077L60.3498 25.2778L60.5218 25.0597L60.4856 24.7807L60.2503 24.6149L60.1598 24.5974H48.593Z" fill="#912D29"/>
<path d="M79.4721 23.9731H83.9883V20.1006H79.4721V16.349H84.6517V12.5007H75.0581V29.4431H79.4721V23.9731Z" fill="#1A1A1A"/>
<path d="M91.3316 16.349H96.5363V12.5007H86.9434V29.4431H96.741V25.4011H91.3316V22.6419H96.0776V18.7694H91.3316V16.349Z" fill="#1A1A1A"/>
<path d="M112.543 29.4189V29.201L109.506 23.0534C111.089 21.94 111.625 20.4152 111.65 18.479C111.65 14.8968 109.252 12.5007 105.628 12.5007H99.3267V29.4189H103.741V24.1183H105.425L107.721 29.4189H112.543ZM103.664 20.512V16.3248H105.603C106.675 16.3248 107.389 17.1478 107.389 18.3821C107.389 19.6649 106.675 20.512 105.603 20.512H103.664Z" fill="#1A1A1A"/>
<path d="M127.742 29.4189V29.201L124.706 23.0534C126.288 21.94 126.823 20.4152 126.849 18.479C126.849 14.8968 124.451 12.5007 120.828 12.5007H114.526V29.4189H118.94V24.1183H120.624L122.919 29.4189H127.742ZM118.863 20.512V16.3248H120.802C121.874 16.3248 122.588 17.1478 122.588 18.3821C122.588 19.6649 121.874 20.512 120.802 20.512H118.863Z" fill="#1A1A1A"/>
<path d="M135.749 29.6609C139.473 29.6609 141.974 27.289 141.974 23.7553V12.5007H137.586V23.6585C137.586 24.917 136.871 25.7642 135.774 25.7642C134.651 25.7642 133.912 24.917 133.912 23.6585V12.5007H129.498V23.7553C129.498 27.289 131.998 29.6609 135.749 29.6609Z" fill="#1A1A1A"/>
<path d="M160.002 12.4041H158.446L152.475 19.7376L146.505 12.4041H144.948V29.4432H149.362V21.7708L152.22 25.4013H152.705L155.588 21.7708V29.4432H160.002V12.4041Z" fill="#1A1A1A"/>
<path d="M167.243 24.1184H171.759V20.2458H167.243V16.4943H172.422V12.646H162.829V29.5883H167.243V24.1184Z" fill="#C1C1C1"/>
<path d="M189.564 21.1173C189.564 15.8894 186.451 12.4041 181.781 12.4041C177.087 12.4041 173.949 15.8894 173.949 21.1173C173.949 26.3452 177.087 29.8305 181.781 29.8305C186.451 29.8305 189.564 26.3452 189.564 21.1173ZM178.337 21.1173C178.337 18.4065 179.715 16.567 181.781 16.567C183.797 16.567 185.124 18.4065 185.124 21.1173C185.124 23.8281 183.797 25.6917 181.781 25.6917C179.715 25.6917 178.337 23.8281 178.337 21.1173Z" fill="#C1C1C1"/>
<path d="M205.123 29.5641V29.3463L202.087 23.1987C203.668 22.0853 204.204 20.5605 204.23 18.6242C204.23 15.0421 201.831 12.646 198.209 12.646H191.906V29.5641H196.32V24.2636H198.004L200.301 29.5641H205.123ZM196.244 20.6573V16.4701H198.183C199.254 16.4701 199.969 17.2931 199.969 18.5274C199.969 19.8102 199.254 20.6573 198.183 20.6573H196.244Z" fill="#C1C1C1"/>
<path d="M222.158 12.5493H220.602L214.632 19.883L208.661 12.5493H207.105V29.5885H211.519V21.916L214.376 25.5465H214.862L217.744 21.916V29.5885H222.158V12.5493Z" fill="#C1C1C1"/>
<path d="M239.456 29.5884V29.3222L232.669 12.4041H230.474L223.611 29.3222V29.5884H228.229L229.02 27.4828H234.097L234.888 29.5884H239.456ZM230.27 24.0459C231.01 21.6982 231.189 20.8994 231.546 19.2294C231.826 20.73 232.005 21.6014 232.847 24.0459H230.27Z" fill="#C1C1C1"/>
<path d="M238.497 12.646V16.5186H242.018V29.5883H246.305V16.5186H249.8V12.646H238.497Z" fill="#C1C1C1"/>
<path d="M254.572 10.3101V11.5477H255.969V15.7249H257.669V11.5477H259.055V10.3101H254.572Z" fill="#C1C1C1"/>
<path d="M265.791 10.2793H265.174L262.806 12.6231L260.438 10.2793H259.821V15.7251H261.572V13.2729L262.705 14.4332H262.898L264.041 13.2729V15.7251H265.791V10.2793Z" fill="#C1C1C1"/>
</g>
<defs>
<clipPath id="clip0_788_21786">
<rect width="266" height="42" fill="white"/>
</clipPath>
</defs>
</svg>
