<svg width="40" height="40" viewBox="0 0 40 40" fill="none" xmlns="http://www.w3.org/2000/svg">
<g clip-path="url(#clip0_788_21997)">
<path d="M19.9996 40.0003C31.0451 40.0003 39.9993 31.0461 39.9993 20.0006C39.9993 8.95512 31.0451 0.000976562 19.9996 0.000976562C8.95415 0.000976562 0 8.95512 0 20.0006C0 31.0461 8.95415 40.0003 19.9996 40.0003Z" fill="#1A1A1A"/>
<path d="M17.7527 23.2886L17.4073 28.1746C17.9014 28.1746 18.1154 27.9611 18.3721 27.7047L20.6886 25.4779L25.4888 29.0137C26.3692 29.5072 26.9894 29.2474 27.2269 28.1991L30.3777 13.3486L30.3786 13.3477C30.6578 12.0387 29.908 11.5269 29.0502 11.848L10.5298 18.9801C9.2658 19.4736 9.28494 20.1824 10.3149 20.5035L15.0499 21.9849L26.0482 15.0627C26.5658 14.718 27.0364 14.9087 26.6493 15.2535L17.7527 23.2886Z" fill="white"/>
</g>
<defs>
<clipPath id="clip0_788_21997">
<rect width="40" height="40" fill="white"/>
</clipPath>
</defs>
</svg>
