<svg width="40" height="40" viewBox="0 0 40 40" fill="none" xmlns="http://www.w3.org/2000/svg">
<g clip-path="url(#clip0_788_22001)">
<path d="M19.9996 40.0003C31.0451 40.0003 39.9993 31.0461 39.9993 20.0006C39.9993 8.95512 31.0451 0.000976562 19.9996 0.000976562C8.95415 0.000976562 0 8.95512 0 20.0006C0 31.0461 8.95415 40.0003 19.9996 40.0003Z" fill="#1A1A1A"/>
<g clip-path="url(#clip1_788_22001)">
<path fill-rule="evenodd" clip-rule="evenodd" d="M11.7481 11.7496C10.3984 13.0992 10.3984 15.2714 10.3984 19.6159V20.3839C10.3984 24.7284 10.3984 26.9006 11.7481 28.2503C13.0977 29.5999 15.27 29.5999 19.6144 29.5999H20.3824C24.7269 29.5999 26.8991 29.5999 28.2488 28.2503C29.5984 26.9006 29.5984 24.7284 29.5984 20.3839V19.6159C29.5984 15.2714 29.5984 13.0992 28.2488 11.7496C26.8991 10.3999 24.7269 10.3999 20.3824 10.3999H19.6144C15.27 10.3999 13.0977 10.3999 11.7481 11.7496ZM13.6385 16.2399C13.7425 21.2319 16.2385 24.2319 20.6145 24.2319H20.8625V21.3759C22.4705 21.5359 23.6864 22.7119 24.1744 24.2319H26.4465C25.8225 21.9599 24.1824 20.7039 23.1584 20.2239C24.1824 19.6319 25.6224 18.1919 25.9664 16.2399H23.9024C23.4544 17.8239 22.1265 19.2639 20.8625 19.3999V16.2399H18.7984V21.7759C17.5184 21.4559 15.9025 19.9039 15.8305 16.2399H13.6385Z" fill="white"/>
</g>
</g>
<defs>
<clipPath id="clip0_788_22001">
<rect width="40" height="40" fill="white"/>
</clipPath>
<clipPath id="clip1_788_22001">
<rect width="19.2" height="19.2" fill="white" transform="translate(10.3984 10.3999)"/>
</clipPath>
</defs>
</svg>
