<svg width="40" height="41" viewBox="0 0 40 41" fill="none" xmlns="http://www.w3.org/2000/svg">
<g clip-path="url(#clip0_838_13937)">
<path d="M20.0001 40.5003C31.0456 40.5003 39.9998 31.5461 39.9998 20.5006C39.9998 9.45512 31.0456 0.500977 20.0001 0.500977C8.95463 0.500977 0.000488281 9.45512 0.000488281 20.5006C0.000488281 31.5461 8.95463 40.5003 20.0001 40.5003Z" fill="#1A1A1A"/>
<path fill-rule="evenodd" clip-rule="evenodd" d="M22.1827 21.5682C21.8366 21.7097 21.6155 22.2514 21.3913 22.5282C21.2763 22.67 21.1391 22.6922 20.9623 22.6211C19.6634 22.1036 18.6677 21.2368 17.9509 20.0414C17.8295 19.8561 17.8513 19.7097 17.9977 19.5375C18.2141 19.2825 18.4863 18.9929 18.5448 18.6493C18.6748 17.8893 17.6813 15.5318 16.3691 16.6C12.5935 19.6768 22.6677 27.8372 24.4859 23.4236C25.0002 22.1725 22.7563 21.3332 22.1827 21.5682ZM19.9998 28.045C18.6645 28.045 17.3506 27.69 16.2002 27.0179C16.0156 26.9097 15.7924 26.8811 15.5859 26.9372L13.0863 27.6232L13.957 25.705C14.0153 25.577 14.0386 25.4358 14.0247 25.2958C14.0107 25.1558 13.9601 25.022 13.8777 24.9079C12.9463 23.6168 12.4538 22.0925 12.4538 20.4993C12.4538 16.3382 15.8388 12.9532 19.9998 12.9532C24.1609 12.9532 27.5455 16.3382 27.5455 20.4993C27.5455 24.66 24.1605 28.045 19.9998 28.045ZM19.9998 11.3564C14.9584 11.3564 10.857 15.4579 10.857 20.4993C10.857 22.2729 11.3606 23.9761 12.3174 25.4543L10.9285 28.5132C10.8657 28.6514 10.8436 28.8046 10.8647 28.9549C10.8858 29.1051 10.9493 29.2463 11.0477 29.3618C11.1228 29.4497 11.216 29.5202 11.3209 29.5686C11.4259 29.617 11.54 29.6421 11.6556 29.6422C12.1706 29.6422 14.9788 28.7597 15.6934 28.5636C17.0145 29.2704 18.4963 29.6422 19.9998 29.6422C25.0409 29.6422 29.1426 25.5404 29.1426 20.4993C29.1426 15.4579 25.0409 11.3564 19.9998 11.3564Z" fill="white"/>
</g>
<defs>
<clipPath id="clip0_838_13937">
<rect width="40" height="40" fill="white" transform="translate(0 0.5)"/>
</clipPath>
</defs>
</svg>
