<svg width="18" height="19" viewBox="0 0 18 19" fill="none" xmlns="http://www.w3.org/2000/svg">
<path fill-rule="evenodd" clip-rule="evenodd" d="M11.0373 10.4968C10.7143 10.6288 10.5079 11.1345 10.2986 11.3928C10.1913 11.5252 10.0633 11.5458 9.89826 11.4795C8.68594 10.9965 7.75661 10.1875 7.08761 9.07182C6.97428 8.89882 6.99461 8.76215 7.13128 8.60149C7.33327 8.36349 7.58727 8.09315 7.64194 7.77249C7.76327 7.06315 6.83594 4.86282 5.61128 5.85982C2.0873 8.73149 11.4899 16.3478 13.1869 12.2285C13.6669 11.0608 11.5726 10.2775 11.0373 10.4968ZM8.99993 16.5418C7.75361 16.5418 6.52728 16.2105 5.45362 15.5832C5.28129 15.4822 5.07295 15.4555 4.88029 15.5078L2.5473 16.1482L3.35996 14.3578C3.41432 14.2383 3.4361 14.1065 3.42311 13.9759C3.41011 13.8452 3.3628 13.7203 3.28596 13.6138C2.41664 12.4088 1.95697 10.9862 1.95697 9.49915C1.95697 5.61549 5.11629 2.45615 8.99993 2.45615C12.8836 2.45615 16.0426 5.61549 16.0426 9.49915C16.0426 13.3825 12.8832 16.5418 8.99993 16.5418ZM8.99993 0.96582C4.29463 0.96582 0.466646 4.79382 0.466646 9.49915C0.466646 11.1545 0.936644 12.7442 1.82964 14.1238L0.533313 16.9788C0.474735 17.1078 0.454097 17.2507 0.473813 17.391C0.49353 17.5313 0.552785 17.663 0.644645 17.7708C0.714705 17.8528 0.801695 17.9187 0.899631 17.9638C0.997567 18.009 1.10412 18.0324 1.21198 18.0325C1.69264 18.0325 4.31362 17.2088 4.98062 17.0258C6.21361 17.6855 7.59661 18.0325 8.99993 18.0325C13.7049 18.0325 17.5332 14.2042 17.5332 9.49915C17.5332 4.79382 13.7049 0.96582 8.99993 0.96582Z" fill="white"/>
</svg>
