<svg width="40" height="40" viewBox="0 0 40 40" fill="none" xmlns="http://www.w3.org/2000/svg">
<path fill-rule="evenodd" clip-rule="evenodd" d="M20 0C8.95431 0 0 8.95431 0 20C0 31.0457 8.95431 40 20 40C31.0457 40 40 31.0457 40 20C40 8.95431 31.0457 0 20 0ZM20.1071 30C20.2429 25.5714 20.3571 23.55 21.9286 21.9286C23.55 20.3571 25.5714 20.25 30 20.1071C30 24.1 29.9857 27.0857 28.5571 28.5571C27.0857 29.9857 24.2357 30 20.1071 30ZM11.4429 28.5571C10.0143 27.0857 10 24.1 10 20.1071C14.4286 20.2429 16.45 20.3571 18.0714 21.9286C19.6429 23.55 19.75 25.5714 19.8929 30C15.7643 30 12.9143 29.9857 11.4429 28.5571ZM11.4429 11.4429C12.9143 10.0143 15.7714 10 19.8929 10C19.7571 14.4286 19.6429 16.45 18.0714 18.0714C16.45 19.6429 14.4286 19.75 10 19.8929C10 15.9 10.0143 12.9143 11.4429 11.4429ZM20.1071 10C20.2429 14.4286 20.3571 16.45 21.9286 18.0714C23.55 19.6429 25.5714 19.75 30 19.8929C30 15.9 29.9857 12.9143 28.5571 11.4429C27.0857 10.0143 24.2357 10 20.1071 10Z" fill="#1A1A1A"/>
</svg>
