<svg width="40" height="40" viewBox="0 0 40 40" fill="none" xmlns="http://www.w3.org/2000/svg">
<g clip-path="url(#clip0_788_22007)">
<path d="M19.9996 40.0003C31.0451 40.0003 39.9993 31.0461 39.9993 20.0006C39.9993 8.95512 31.0451 0.000976562 19.9996 0.000976562C8.95415 0.000976562 0 8.95512 0 20.0006C0 31.0461 8.95415 40.0003 19.9996 40.0003Z" fill="#1A1A1A"/>
<path d="M19.9996 40.0003C31.0451 40.0003 39.9993 31.0461 39.9993 20.0006C39.9993 8.95512 31.0451 0.000976562 19.9996 0.000976562C8.95415 0.000976562 0 8.95512 0 20.0006C0 31.0461 8.95415 40.0003 19.9996 40.0003Z" fill="#1A1A1A"/>
<path d="M29.1347 15.1637C29.0269 14.758 28.8145 14.3877 28.5186 14.0899C28.2228 13.792 27.8539 13.5772 27.4488 13.4668C25.9624 13.0664 20.0001 13.0664 20.0001 13.0664C20.0001 13.0664 14.0378 13.0664 12.5506 13.4668C12.1457 13.5772 11.7769 13.7921 11.4812 14.0899C11.1855 14.3878 10.9732 14.7581 10.8656 15.1637C10.4668 16.6605 10.4668 19.7826 10.4668 19.7826C10.4668 19.7826 10.4668 22.9048 10.8656 24.4015C10.9733 24.8073 11.1857 25.1776 11.4816 25.4754C11.7775 25.7732 12.1464 25.9881 12.5514 26.0985C14.0378 26.4989 20.0001 26.4989 20.0001 26.4989C20.0001 26.4989 25.9624 26.4989 27.4496 26.0985C27.8546 25.9879 28.2234 25.773 28.5193 25.4752C28.8151 25.1775 29.0276 24.8072 29.1354 24.4015C29.5335 22.9048 29.5335 19.7826 29.5335 19.7826C29.5335 19.7826 29.5335 16.6605 29.1347 15.1637ZM18.0506 22.618V16.9473L23.0333 19.7826L18.0506 22.618Z" fill="white"/>
</g>
<defs>
<clipPath id="clip0_788_22007">
<rect width="40" height="40" fill="white"/>
</clipPath>
</defs>
</svg>
